<svg xmlns="http://www.w3.org/2000/svg" width="26" height="26" viewBox="0 0 26 26" fill="none">
<g clip-path="url(#clip0)">
<path d="M25.4493 12.9312C25.4493 5.98722 19.875 0.359375 12.9971 0.359375C6.11922 0.359375 0.544922 5.98722 0.544922 12.9312C0.544922 19.2072 5.09775 24.4078 11.0515 25.3507V16.5652H7.88977V12.9312H11.0515V10.1614C11.0515 7.01113 12.9096 5.27023 15.7551 5.27023C17.117 5.27023 18.5422 5.51577 18.5422 5.51577V8.60961H16.9711C15.4243 8.60961 14.9428 9.57951 14.9428 10.574V12.9312H18.3963L17.8442 16.5652H14.9428V25.3507C20.8965 24.4078 25.4493 19.2072 25.4493 12.9312Z" fill="white" fill-opacity="0.7"/>
</g>
<defs>
<clipPath id="clip0">
<rect width="24.9044" height="25.1436" fill="white" transform="translate(0.544922 0.359375)"/>
</clipPath>
</defs>
</svg>