<svg xmlns="http://www.w3.org/2000/svg" width="26" height="26" viewBox="0 0 26 26" fill="none">
<circle cx="12.8057" cy="12.8111" r="12.4522" fill="white" fill-opacity="0.7"/>
<path d="M15.7937 6.2959H9.81775C7.8728 6.2959 6.29053 7.87818 6.29053 9.82312V15.7992C6.29053 17.744 7.8728 19.3263 9.81775 19.3263H15.7938C17.7387 19.3263 19.321 17.744 19.321 15.7992V9.82312C19.321 7.87818 17.7387 6.2959 15.7937 6.2959V6.2959ZM12.8057 16.374C10.8411 16.374 9.24283 14.7757 9.24283 12.8111C9.24283 10.8465 10.8411 9.2482 12.8057 9.2482C14.7704 9.2482 16.3686 10.8465 16.3686 12.8111C16.3686 14.7757 14.7704 16.374 12.8057 16.374ZM16.4538 10.0885C15.8733 10.0885 15.4011 9.61624 15.4011 9.03566C15.4011 8.45508 15.8733 7.98276 16.4538 7.98276C17.0344 7.98276 17.5067 8.45508 17.5067 9.03566C17.5067 9.61624 17.0344 10.0885 16.4538 10.0885Z" fill="#333333"/>
<path d="M12.8054 10.0122C11.262 10.0122 10.0063 11.2678 10.0063 12.8112C10.0063 14.3545 11.262 15.6102 12.8054 15.6102C14.3488 15.6102 15.6044 14.3545 15.6044 12.8112C15.6044 11.2678 14.3488 10.0122 12.8054 10.0122Z" fill="#333333"/>
<path d="M16.4534 8.74707C16.2942 8.74707 16.1646 8.87671 16.1646 9.03597C16.1646 9.19523 16.2942 9.32487 16.4534 9.32487C16.6128 9.32487 16.7424 9.19533 16.7424 9.03597C16.7424 8.87661 16.6128 8.74707 16.4534 8.74707Z" fill="#333333"/>
</svg>