<svg xmlns="http://www.w3.org/2000/svg" width="26" height="26" viewBox="0 0 26 26" fill="none">
<circle cx="12.9014" cy="12.8111" r="12.4522" fill="white" fill-opacity="0.7"/>
<path d="M19.5818 8.75887C19.1857 8.05434 18.7559 7.92475 17.8807 7.87546C17.0064 7.81614 14.8079 7.7915 12.9033 7.7915C10.995 7.7915 8.79564 7.81614 7.92227 7.87455C7.0489 7.92475 6.61815 8.05342 6.21842 8.75887C5.81049 9.46249 5.60059 10.6744 5.60059 12.8081C5.60059 12.81 5.60059 12.8109 5.60059 12.8109C5.60059 12.8127 5.60059 12.8136 5.60059 12.8136V12.8154C5.60059 14.94 5.81049 16.1611 6.21842 16.8574C6.61815 17.5619 7.04799 17.6897 7.92136 17.749C8.79564 17.8001 10.995 17.8302 12.9033 17.8302C14.8079 17.8302 17.0064 17.8001 17.8816 17.7499C18.7568 17.6906 19.1866 17.5628 19.5827 16.8583C19.9943 16.162 20.2024 14.9409 20.2024 12.8163C20.2024 12.8163 20.2024 12.8136 20.2024 12.8118C20.2024 12.8118 20.2024 12.81 20.2024 12.809C20.2024 10.6744 19.9943 9.46249 19.5818 8.75887ZM11.0763 15.5487V10.073L15.6393 12.8109L11.0763 15.5487Z" fill="#333333"/>
</svg>