<svg width="17" height="21" viewBox="0 0 17 21" fill="none" xmlns="http://www.w3.org/2000/svg">
<path fill-rule="evenodd" clip-rule="evenodd" d="M8.1812 20.0146L8.75818 19.5108C13.6101 15.2742 16.0763 11.575 16.0763 8.32329C16.0763 3.71842 12.4822 0.428223 8.1812 0.428223C3.88019 0.428223 0.286133 3.71842 0.286133 8.32329C0.286133 11.575 2.7523 15.2742 7.60422 19.5108L8.1812 20.0146ZM8.1817 17.6778C4.06452 13.9672 2.04109 10.823 2.04109 8.32352C2.04109 4.7239 4.81675 2.18291 8.1817 2.18291C11.5467 2.18291 14.3223 4.7239 14.3223 8.32352C14.3223 10.823 12.2989 13.9672 8.1817 17.6778ZM8.18132 3.9374C10.6037 3.9374 12.5675 5.90115 12.5675 8.32355C12.5675 10.746 10.6037 12.7097 8.18132 12.7097C5.75892 12.7097 3.79517 10.746 3.79517 8.32355C3.79517 5.90115 5.75892 3.9374 8.18132 3.9374ZM5.55008 8.32358C5.55008 6.87014 6.72832 5.69189 8.18177 5.69189C9.63521 5.69189 10.8135 6.87014 10.8135 8.32358C10.8135 9.77703 9.63521 10.9553 8.18177 10.9553C6.72832 10.9553 5.55008 9.77703 5.55008 8.32358Z" fill="#A9A9A9"/>
</svg>
