<svg width="18" height="18" viewBox="0 0 18 18" fill="none" xmlns="http://www.w3.org/2000/svg">
<path fill-rule="evenodd" clip-rule="evenodd" d="M8.25751 6.1828C8.68755 5.60327 8.84175 4.9925 8.35539 4.45337C7.26395 2.92615 6.52993 1.98172 6.06951 1.5269C5.1942 0.662237 3.7543 0.779197 2.99622 1.52616C2.58905 1.92736 2.4512 2.06514 2.03313 2.48979C-0.29563 4.81979 1.12457 9.74535 4.89996 13.5245C8.6745 17.3027 13.5996 18.7237 15.9332 16.3887C16.319 16.0168 16.6457 15.69 16.9033 15.4177C17.6462 14.6325 17.759 13.2561 16.8984 12.3619C16.4572 11.9035 15.5566 11.2049 13.9651 10.0665C13.4777 9.63066 12.8997 9.72512 12.3699 10.0727C12.115 10.24 11.9295 10.4091 11.5793 10.7597L10.9433 11.396C10.8595 11.4798 9.72206 10.9102 8.61791 9.80497C7.51315 8.69913 6.9439 7.5616 7.02728 7.47823L7.66372 6.84144C7.77484 6.73022 7.82796 6.67636 7.89609 6.60476C8.03803 6.45558 8.15555 6.3202 8.25751 6.1828ZM12.1164 12.569L12.7525 11.9326C12.9453 11.7396 13.0702 11.621 13.1718 11.5392C14.566 12.5404 15.3734 13.1699 15.7032 13.5126C15.9012 13.7183 15.8704 14.0937 15.6983 14.2757C15.4601 14.5274 15.1506 14.8371 14.7708 15.2034C13.2618 16.7131 9.28613 15.566 6.0733 12.3501C2.85946 9.13306 1.71298 5.15681 3.21061 3.65837C3.627 3.23546 3.75892 3.1036 4.16028 2.70813C4.31077 2.55985 4.72069 2.52655 4.90375 2.70739C5.25823 3.05755 5.91577 3.89949 6.88306 5.2469C6.83298 5.30907 6.77044 5.37932 6.69433 5.45932C6.63846 5.51803 6.59193 5.5652 6.49018 5.66705L5.85437 6.30321C4.77272 7.38477 5.69389 9.22552 7.44437 10.9777C9.19365 12.7287 11.0351 13.6509 12.1164 12.569ZM10.5788 0.979132C14.1673 1.4141 17.0127 4.25946 17.4476 7.84791L15.808 8.12119C15.4914 5.23074 13.196 2.93538 10.3056 2.61879L10.5788 0.979132ZM10.0326 4.26059C12.2251 4.4567 13.9713 6.2029 14.1674 8.39543L12.5225 8.66958C12.4527 7.1748 11.2532 5.97532 9.75842 5.90552L10.0326 4.26059Z" fill="#BFBFBF"/>
</svg>
