<svg xmlns="http://www.w3.org/2000/svg" width="26" height="26" viewBox="0 0 26 26" fill="none">
<circle cx="12.6148" cy="12.8111" r="12.4522" fill="white" fill-opacity="0.7"/>
<path d="M20.312 16.9167C20.2932 16.8761 20.2756 16.8424 20.2593 16.8154C19.9893 16.3292 19.4734 15.7324 18.712 15.0249L18.6959 15.0087L18.6878 15.0008L18.6797 14.9926H18.6715C18.3259 14.6632 18.107 14.4416 18.0154 14.3282C17.8477 14.1122 17.8101 13.8935 17.9018 13.6719C17.9665 13.5045 18.2097 13.151 18.6309 12.6108C18.8524 12.3245 19.0278 12.0951 19.1574 11.9222C20.0918 10.68 20.4969 9.88616 20.3726 9.54047L20.3244 9.45969C20.2919 9.41106 20.2082 9.36657 20.0734 9.32599C19.9382 9.2855 19.7654 9.2788 19.5547 9.30579L17.2217 9.3219C17.1839 9.30851 17.1299 9.30976 17.0596 9.32599C16.9893 9.34222 16.9542 9.35036 16.9542 9.35036L16.9136 9.37065L16.8814 9.39503C16.8544 9.41114 16.8247 9.43949 16.7922 9.48001C16.76 9.52039 16.733 9.56777 16.7114 9.62177C16.4574 10.2753 16.1686 10.8829 15.8445 11.4445C15.6446 11.7794 15.4611 12.0697 15.2935 12.3154C15.1261 12.5611 14.9857 12.7421 14.8724 12.8581C14.7589 12.9742 14.6564 13.0673 14.5644 13.1376C14.4726 13.2079 14.4025 13.2376 14.3539 13.2267C14.3053 13.2159 14.2594 13.2051 14.2161 13.1943C14.1405 13.1457 14.0797 13.0795 14.0339 12.9958C13.9879 12.9121 13.9569 12.8068 13.9407 12.6798C13.9246 12.5528 13.915 12.4436 13.9123 12.3517C13.9098 12.26 13.9109 12.1302 13.9164 11.9628C13.922 11.7953 13.9246 11.682 13.9246 11.6226C13.9246 11.4173 13.9286 11.1946 13.9366 10.9542C13.9448 10.7139 13.9514 10.5235 13.9569 10.3832C13.9624 10.2427 13.965 10.0942 13.965 9.93755C13.965 9.78092 13.9554 9.65809 13.9366 9.56893C13.918 9.47989 13.8894 9.39346 13.8518 9.30967C13.8139 9.22597 13.7584 9.16122 13.6857 9.11525C13.6128 9.06934 13.5222 9.03291 13.4143 9.00584C13.128 8.94106 12.7635 8.90601 12.3205 8.90057C11.316 8.88978 10.6706 8.95465 10.3844 9.09508C10.2709 9.15441 10.1683 9.23547 10.0765 9.33802C9.97931 9.45688 9.96574 9.52175 10.0359 9.53242C10.36 9.58097 10.5895 9.6971 10.7245 9.88072L10.7732 9.97801C10.811 10.0482 10.8488 10.1725 10.8866 10.3507C10.9244 10.5289 10.9488 10.726 10.9595 10.9419C10.9865 11.3363 10.9865 11.6738 10.9595 11.9546C10.9325 12.2355 10.9069 12.4542 10.8826 12.6108C10.8582 12.7675 10.8218 12.8944 10.7732 12.9916C10.7245 13.0888 10.6921 13.1482 10.6759 13.1697C10.6597 13.1913 10.6462 13.2049 10.6355 13.2102C10.5653 13.2371 10.4923 13.2508 10.4167 13.2508C10.341 13.2508 10.2493 13.213 10.1413 13.1373C10.0333 13.0617 9.92125 12.9578 9.80511 12.8254C9.68898 12.6931 9.558 12.5081 9.41212 12.2705C9.26636 12.0329 9.11512 11.7521 8.9585 11.428L8.82891 11.193C8.7479 11.0418 8.63724 10.8217 8.49681 10.5328C8.3563 10.2438 8.2321 9.96428 8.12414 9.69424C8.08098 9.58082 8.01614 9.49448 7.92974 9.43506L7.88919 9.41069C7.86224 9.38912 7.81896 9.36622 7.7596 9.34182C7.70016 9.31745 7.63813 9.29997 7.57327 9.28922L5.35354 9.30533C5.12671 9.30533 4.97281 9.35672 4.89177 9.45935L4.85933 9.5079C4.84313 9.53494 4.83496 9.57813 4.83496 9.63757C4.83496 9.69699 4.85116 9.76991 4.8836 9.85626C5.20764 10.6178 5.56002 11.3523 5.94075 12.0598C6.32149 12.7673 6.65234 13.3372 6.9331 13.769C7.21393 14.2011 7.50017 14.609 7.79184 14.9923C8.0835 15.3758 8.27656 15.6216 8.37102 15.7295C8.4656 15.8377 8.53988 15.9186 8.59388 15.9726L8.79645 16.1669C8.92606 16.2966 9.1164 16.4519 9.36755 16.6327C9.61875 16.8137 9.89685 16.9919 10.202 17.1676C10.5072 17.343 10.8622 17.4861 11.2673 17.5968C11.6724 17.7076 12.0666 17.7521 12.4501 17.7306H13.3818C13.5707 17.7143 13.7139 17.6549 13.8112 17.5523L13.8434 17.5117C13.8651 17.4795 13.8854 17.4294 13.9041 17.362C13.9231 17.2945 13.9325 17.2202 13.9325 17.1393C13.9269 16.9071 13.9446 16.6978 13.985 16.5115C14.0254 16.3253 14.0714 16.1848 14.1229 16.0903C14.1743 15.9958 14.2324 15.916 14.297 15.8514C14.3618 15.7866 14.4079 15.7474 14.435 15.7339C14.4619 15.7203 14.4833 15.7111 14.4995 15.7055C14.6292 15.6623 14.7817 15.7042 14.9574 15.8312C15.133 15.9581 15.2976 16.1148 15.4516 16.3011C15.6056 16.4875 15.7905 16.6966 16.0065 16.9288C16.2226 17.1611 16.4116 17.3338 16.5736 17.4474L16.7355 17.5446C16.8437 17.6094 16.9841 17.6689 17.157 17.7228C17.3295 17.7768 17.4807 17.7903 17.6105 17.7633L19.6844 17.731C19.8895 17.731 20.0491 17.697 20.1623 17.6296C20.2757 17.5621 20.3431 17.4878 20.3649 17.4069C20.3865 17.3259 20.3877 17.234 20.369 17.1313C20.3498 17.0288 20.3308 16.9572 20.312 16.9167Z" fill="#333333"/>
</svg>