<svg xmlns="http://www.w3.org/2000/svg" width="25" height="26" viewBox="0 0 25 26" fill="none">
<circle cx="12.5191" cy="12.8111" r="12.4522" fill="white" fill-opacity="0.7"/>
<path d="M12.521 5.85107H12.5175C8.67983 5.85107 5.55908 8.9727 5.55908 12.8112C5.55908 14.3337 6.04977 15.7449 6.88412 16.8907L6.01671 19.4764L8.69201 18.6212C9.79258 19.3503 11.1054 19.7713 12.521 19.7713C16.3586 19.7713 19.4794 16.6489 19.4794 12.8112C19.4794 8.97357 16.3586 5.85107 12.521 5.85107Z" fill="#333333"/>
<path d="M16.5711 15.6794C16.4032 16.1535 15.7367 16.5468 15.2052 16.6616C14.8415 16.7391 14.3665 16.8008 12.7674 16.1379C10.722 15.2905 9.40476 13.212 9.3021 13.0771C9.20379 12.9423 8.47559 11.9766 8.47559 10.9778C8.47559 9.97902 8.98281 9.49268 9.18726 9.28387C9.35517 9.11248 9.63271 9.03418 9.89893 9.03418C9.98507 9.03418 10.0625 9.03853 10.1321 9.04201C10.3366 9.05071 10.4392 9.06289 10.5741 9.38567C10.742 9.79022 11.1509 10.789 11.1996 10.8917C11.2492 10.9943 11.2988 11.1335 11.2292 11.2684C11.1639 11.4076 11.1065 11.4694 11.0039 11.5877C10.9012 11.706 10.8038 11.7965 10.7011 11.9235C10.6071 12.034 10.501 12.1523 10.6193 12.3568C10.7376 12.5569 11.1465 13.2242 11.7486 13.7601C12.5255 14.4518 13.1554 14.6728 13.3807 14.7667C13.5487 14.8363 13.7488 14.8198 13.8714 14.6893C14.0272 14.5214 14.2194 14.243 14.4152 13.9689C14.5544 13.7723 14.7301 13.7479 14.9146 13.8175C15.1025 13.8828 16.0969 14.3743 16.3014 14.4761C16.5058 14.5788 16.6407 14.6275 16.6903 14.7137C16.739 14.7998 16.739 15.2043 16.5711 15.6794Z" fill="white" fill-opacity="0.7"/>
</svg>