<svg xmlns="http://www.w3.org/2000/svg" width="243" height="206" viewBox="0 0 243 206" fill="none">
<path d="M161.097 3.52867C161.097 3.52867 123.06 -7.67276 85.4888 14.9839C47.9177 37.6405 28.7877 79.8828 12.3558 113.782C-4.07604 147.682 5.02803 180.882 33.4951 194.828C61.9622 208.774 81.5375 185.196 121.62 182.12C161.703 179.044 172.444 184.046 205.841 160.577C239.238 137.107 245.592 85.2479 219.611 48.3862C193.629 11.5245 161.097 3.52867 161.097 3.52867Z" fill="#EFF6F9"/>
<path d="M27.8558 200.774C27.8558 200.774 15.0282 173.451 17.8144 172.664C20.6005 171.877 26.442 176.227 26.442 176.227C26.442 176.227 9.30065 130.292 13.7388 126.729C18.1769 123.167 26.4627 141.401 26.4627 141.401C26.4627 141.401 17.6124 113.265 18.6533 102.561C19.6942 91.8564 30.9371 102.167 30.9371 102.167C30.9371 102.167 21.9314 63.757 30.2949 61.7736C38.6585 59.7902 38.3788 105.725 38.3788 105.725C38.3788 105.725 41.1235 72.8559 44.4741 81.9652C47.8247 91.0744 40.7817 121.561 40.7817 121.561C40.7817 121.561 45.3752 111.266 47.9282 120.769C50.4813 130.272 42.8532 168.682 42.8532 168.682C42.8532 168.682 49.3368 162.348 49.9427 170.266C50.5486 178.185 36.5197 202.737 36.5197 202.737L28.5808 203.544L27.8558 200.774Z" fill="#008CC7"/>
<path opacity="0.6" d="M27.8558 200.774C27.8558 200.774 15.0282 173.451 17.8144 172.664C20.6005 171.877 26.442 176.227 26.442 176.227C26.442 176.227 9.30065 130.292 13.7388 126.729C18.1769 123.167 26.4627 141.401 26.4627 141.401C26.4627 141.401 17.6124 113.265 18.6533 102.561C19.6942 91.8564 30.9371 102.167 30.9371 102.167C30.9371 102.167 21.9314 63.757 30.2949 61.7736C38.6585 59.7902 38.3788 105.725 38.3788 105.725C38.3788 105.725 41.1235 72.8559 44.4741 81.9652C47.8247 91.0744 40.7817 121.561 40.7817 121.561C40.7817 121.561 45.3752 111.266 47.9282 120.769C50.4813 130.272 42.8532 168.682 42.8532 168.682C42.8532 168.682 49.3368 162.348 49.9427 170.266C50.5486 178.185 36.5197 202.737 36.5197 202.737L28.5808 203.544L27.8558 200.774Z" fill="white"/>
<path d="M30.5901 201.992C30.5901 201.992 19.9013 182.986 21.8796 179.418C23.8578 175.85 29.7978 184.172 29.7978 184.172C29.7978 184.172 16.3332 150.51 18.3166 147.346C20.3001 144.182 26.6336 158.04 26.6336 158.04C26.6336 158.04 24.2669 111.686 28.2131 113.265C32.1593 114.845 32.5529 137.025 32.5529 137.025C32.5529 137.025 30.181 84.363 33.744 85.9477C37.3069 87.5323 36.9133 146.134 36.9133 146.134C36.9133 146.134 44.0392 123.561 45.1992 133.856C46.3593 144.151 36.0951 171.873 36.0951 171.873C36.0951 171.873 46.0175 150.091 47.2241 161.598C48.4307 173.105 39.2852 194.441 39.2852 194.441C39.2852 194.441 42.8481 185.731 42.8481 190.48C42.8481 195.229 40.0775 201.174 40.0775 201.174" stroke="#263238" stroke-linecap="round" stroke-linejoin="round"/>
<path d="M17.2393 179.442L10.4189 201.918H28.8914L35.9188 179.561L17.2393 179.442Z" fill="#263238" stroke="#263238" stroke-linecap="round" stroke-linejoin="round"/>
<path d="M60.3105 201.882H21.8172L17.2393 179.442H55.7325L60.3105 201.882Z" fill="white" stroke="#263238" stroke-linecap="round" stroke-linejoin="round"/>
<path d="M56.3436 198.086H24.2356L21.8379 186.346H53.9458L56.3436 198.086Z" stroke="#263238" stroke-linecap="round" stroke-linejoin="round"/>
<path d="M24.5977 186.392L26.9747 198.034" stroke="#263238" stroke-linecap="round" stroke-linejoin="round"/>
<path d="M27.5449 186.392L29.9219 198.034" stroke="#263238" stroke-linecap="round" stroke-linejoin="round"/>
<path d="M30.4912 186.392L32.8682 198.034" stroke="#263238" stroke-linecap="round" stroke-linejoin="round"/>
<path d="M33.4336 186.392L35.8106 198.034" stroke="#263238" stroke-linecap="round" stroke-linejoin="round"/>
<path d="M36.3799 186.392L38.7569 198.034" stroke="#263238" stroke-linecap="round" stroke-linejoin="round"/>
<path d="M39.3262 186.392L41.7032 198.034" stroke="#263238" stroke-linecap="round" stroke-linejoin="round"/>
<path d="M42.2676 186.392L44.6446 198.034" stroke="#263238" stroke-linecap="round" stroke-linejoin="round"/>
<path d="M45.2148 186.392L47.5919 198.034" stroke="#263238" stroke-linecap="round" stroke-linejoin="round"/>
<path d="M48.1562 186.392L50.5333 198.034" stroke="#263238" stroke-linecap="round" stroke-linejoin="round"/>
<path d="M51.1025 186.392L53.4796 198.034" stroke="#263238" stroke-linecap="round" stroke-linejoin="round"/>
<path d="M22.3867 188.666H54.3134" stroke="#263238" stroke-linecap="round" stroke-linejoin="round"/>
<path d="M22.8633 191.006H54.7899" stroke="#263238" stroke-linecap="round" stroke-linejoin="round"/>
<path d="M23.3447 193.352H55.2662" stroke="#263238" stroke-linecap="round" stroke-linejoin="round"/>
<path d="M23.8213 195.693H55.748" stroke="#263238" stroke-linecap="round" stroke-linejoin="round"/>
<path d="M35.8256 184.316H21.5687L21.3408 183.176H35.5926L35.8256 184.316Z" fill="#263238"/>
<path d="M230.378 144.508H183.945C181.76 144.559 179.666 145.391 178.04 146.851C176.414 148.312 175.364 150.306 175.079 152.473L169.383 202.825H223.759L230.378 144.508Z" fill="white" stroke="#263238" stroke-linecap="round" stroke-linejoin="round"/>
<path d="M230.621 144.508C228.805 144.55 227.065 145.241 225.715 146.455C224.364 147.669 223.492 149.326 223.257 151.126L217.399 202.825H230.626L236.488 151.126C236.609 150.293 236.546 149.443 236.305 148.636C236.064 147.83 235.649 147.085 235.091 146.455C234.532 145.825 233.843 145.324 233.071 144.988C232.299 144.652 231.462 144.488 230.621 144.508Z" fill="#263238" stroke="#263238" stroke-linecap="round" stroke-linejoin="round"/>
<path d="M168.901 129.381C165.638 131.711 162.111 133.647 158.393 135.15C151.801 137.895 149.149 138.723 149.149 138.723L150.977 201.8H198.839C198.839 201.8 192.702 162.25 192.702 148.977C192.702 135.704 193.251 133.115 193.251 133.115L177.508 129.086L168.901 129.381Z" fill="#008CC7" stroke="#263238" stroke-linecap="round" stroke-linejoin="round"/>
<path d="M163.681 132.037C162.189 142.751 161.304 153.539 161.03 164.353C160.755 180.557 163.868 202.157 163.868 202.157H128.803C133.163 193.908 136.282 185.061 138.057 175.901C140.646 162.783 142.718 140.546 143.267 140.272C143.816 139.997 162.402 133.115 163.681 132.037Z" fill="#263238" stroke="#263238" stroke-linecap="round" stroke-linejoin="round"/>
<path d="M147.756 202.162C147.756 202.162 144.183 177.993 144.364 172.317C144.545 166.642 145.446 147.418 145.446 147.418" stroke="#616161" stroke-linecap="round" stroke-linejoin="round"/>
<path d="M183.365 130.391C183.365 130.391 178.88 150.986 178.513 167.926C178.145 184.865 176.959 202.255 176.959 202.255H205.312C205.312 202.255 205.68 186.781 205.312 181.473C204.945 176.165 204.945 177.263 204.945 177.263L215.934 180.101C215.934 180.101 208.88 146.134 207.601 142.384C206.322 138.635 206.959 137.439 206.136 136.797C205.312 136.155 183.365 130.391 183.365 130.391Z" fill="#263238" stroke="#263238" stroke-linecap="round" stroke-linejoin="round"/>
<path d="M132.153 188.159C132.892 189.292 133.761 190.335 134.742 191.266C136.001 192.343 138.699 191.784 140.133 193.255C141.568 194.726 139.999 199.215 138.186 200.785C135.079 203.462 136.726 195.337 136.726 195.337C135.63 196.088 134.42 196.656 133.142 197.02C131.381 197.424 126.85 196.046 125.333 195.984C123.815 195.922 121.708 195.632 120.9 193.944C120.092 192.255 125.105 190.22 127.332 189.412C128.904 188.872 130.516 188.453 132.153 188.159Z" fill="white" stroke="#263238" stroke-linecap="round" stroke-linejoin="round"/>
<path d="M122.562 190.541C122.083 190.413 121.578 190.429 121.107 190.585C120.637 190.742 120.223 191.032 119.916 191.422C118.88 192.784 116.809 198.936 117.415 200.122C118.021 201.308 119.59 199.645 120.335 197.693C120.653 196.752 121.077 195.85 121.599 195.005C121.599 195.005 122.417 195.404 122.992 194.337C123.567 193.27 124.147 191.67 122.562 190.541Z" fill="white" stroke="#263238" stroke-linecap="round" stroke-linejoin="round"/>
<path d="M125.493 189.469C124.992 189.18 124.405 189.074 123.834 189.169C123.263 189.263 122.742 189.552 122.36 189.987C120.905 191.541 121.905 198.071 122.676 200.07C123.448 202.069 124.908 201.82 125.126 200.588C125.343 199.355 125.592 193.208 125.669 191.784C125.734 191.008 125.674 190.227 125.493 189.469Z" fill="white" stroke="#263238" stroke-linecap="round" stroke-linejoin="round"/>
<path d="M128.601 188.765C128.106 188.453 127.513 188.334 126.936 188.429C126.359 188.525 125.836 188.828 125.468 189.283C124.023 190.924 125.09 197.833 125.882 199.956C126.674 202.079 128.135 201.831 128.342 200.51C128.549 199.19 128.736 192.701 128.798 191.189C128.851 190.375 128.784 189.559 128.601 188.765Z" fill="white" stroke="#263238" stroke-linecap="round" stroke-linejoin="round"/>
<path d="M133.147 189.604C133.147 189.604 131.94 186.906 129.972 187.351C128.004 187.797 127.383 190.458 127.745 194.498C128.108 198.537 128.864 201.748 129.962 201.862C131.06 201.976 132.256 199.537 132.474 196.383C132.691 193.229 133.017 191.344 133.017 191.344" fill="white"/>
<path d="M133.147 189.604C133.147 189.604 131.94 186.906 129.972 187.351C128.004 187.797 127.383 190.458 127.745 194.498C128.108 198.537 128.864 201.748 129.962 201.862C131.06 201.976 132.256 199.537 132.474 196.383C132.691 193.229 133.017 191.344 133.017 191.344" stroke="#263238" stroke-linecap="round" stroke-linejoin="round"/>
<path d="M158.451 161.375H146.245V180.111H158.451V161.375Z" fill="#008CC7" stroke="#263238" stroke-linecap="round" stroke-linejoin="round"/>
<path d="M153.2 155.916H150.952V164.586H153.2V155.916Z" fill="white" stroke="#263238" stroke-linecap="round" stroke-linejoin="round"/>
<path d="M154.483 166.621H149.237V173.472H154.483V166.621Z" fill="white" stroke="#263238" stroke-linecap="round" stroke-linejoin="round"/>
<path d="M148.384 175.507H155.556" stroke="#263238" stroke-linecap="round" stroke-linejoin="round"/>
<path d="M147.312 177.004H156.519" stroke="#263238" stroke-linecap="round" stroke-linejoin="round"/>
<path d="M167.622 126.729C167.622 126.729 163.681 129.381 162.961 131.488C162.241 133.596 159.206 142.566 158.015 145.953C156.824 149.339 150.05 152.271 150.967 152.913C151.883 153.555 160.765 154.373 160.765 154.373C160.765 154.373 162.779 162.25 163.235 164.264C163.691 166.279 166.441 172.41 166.441 172.41C166.441 172.41 174.587 162.612 175.871 159.982C176.754 158.203 177.763 156.489 178.89 154.855C178.89 154.855 182.37 155.678 184.587 156.046C186.803 156.413 192.826 156.957 192.552 155.953C192.277 154.948 189.258 150.551 188.067 146.248C186.876 141.944 187.606 132.514 186.146 128.852C184.685 125.191 181.485 124.642 180.377 124.368C179.268 124.093 169.268 125.17 167.622 126.729Z" fill="#008CC7" stroke="#263238" stroke-linecap="round" stroke-linejoin="round"/>
<path d="M166.337 123.891C166.337 123.891 167.529 130.572 167.373 135.973C167.218 141.375 165.265 153.462 165.359 159.686C165.452 163.821 165.787 167.947 166.363 172.043C166.363 172.043 175.338 159.686 178.632 149.614C181.925 139.541 182.842 130.939 182.842 130.297C182.842 129.655 183.023 114.735 183.023 114.735C183.023 114.735 173.479 124.715 166.337 123.891Z" fill="white" stroke="#263238" stroke-linecap="round" stroke-linejoin="round"/>
<path d="M182.925 121.069C182.962 117.713 182.998 114.735 182.998 114.735C182.998 114.735 173.479 124.715 166.338 123.891C166.338 123.891 166.675 125.771 166.959 128.345C167.893 128.985 168.93 129.46 170.025 129.748C173.329 130.411 177.032 128.562 179.544 125.388C180.471 124.218 181.698 122.622 182.925 121.069Z" fill="#263238" stroke="#263238" stroke-linecap="round" stroke-linejoin="round"/>
<path d="M189.455 90.7477C194.486 90.7477 198.564 86.711 198.564 81.7316C198.564 76.7521 194.486 72.7155 189.455 72.7155C184.424 72.7155 180.346 76.7521 180.346 81.7316C180.346 86.711 184.424 90.7477 189.455 90.7477Z" fill="#263238" stroke="#263238" stroke-linecap="round" stroke-linejoin="round"/>
<path d="M152.567 97.4852C152.567 97.4852 147.679 96.1595 146.871 93.5183C146.063 90.8772 148.989 81.6073 158.507 76.8584C168.026 72.1096 176.757 74.7404 180.589 75.7968C184.422 76.8533 187.203 78.8419 189.714 85.8487C192.226 92.8554 192.355 98.2775 191.563 100.919C191.092 102.498 190.518 104.045 189.844 105.548C189.844 105.548 184.955 106.066 183.629 104.093C182.304 102.12 182.837 92.1822 177.151 89.8156C171.464 87.4489 160.625 88.7798 157.99 91.1361C155.354 93.4924 152.567 97.4852 152.567 97.4852Z" fill="#263238" stroke="#263238" stroke-linecap="round" stroke-linejoin="round"/>
<path d="M151.775 95.7659C151.775 95.7659 152.966 103.301 152.966 107.397C152.966 111.494 156.27 117.185 157.99 118.79C159.709 120.396 165.395 125.797 168.699 126.46C172.003 127.123 175.706 125.269 178.218 122.094C180.729 118.92 185.623 112.576 185.623 112.576C186.715 112.697 187.814 112.434 188.731 111.83C189.649 111.227 190.326 110.322 190.647 109.272C191.972 105.434 191.31 101.074 189.062 100.546C186.814 100.018 185.23 102.659 185.23 102.659C185.23 102.659 183.376 95.5224 180.999 91.9491L177.56 86.7704L181.946 81.2862C181.994 81.2266 182.03 81.1578 182.05 81.0841C182.07 81.0104 182.075 80.9333 182.064 80.8576C182.054 80.7819 182.028 80.7092 181.988 80.6439C181.948 80.5787 181.895 80.5223 181.833 80.4783C181.715 80.3938 181.569 80.358 181.425 80.3782C181.281 80.3985 181.151 80.4733 181.061 80.5871L176.768 86.1128C176.768 86.1128 168.306 84.6575 160.9 88.3603C153.495 92.0631 151.775 95.7659 151.775 95.7659Z" fill="white" stroke="#263238" stroke-linecap="round" stroke-linejoin="round"/>
<path d="M178.943 103.208L177.752 104.798" stroke="#263238" stroke-linecap="round" stroke-linejoin="round"/>
<path d="M162.619 112.291C162.619 112.291 162.883 113.083 164.603 113.482C165.405 113.669 166.244 113.618 167.018 113.337C167.792 113.056 168.468 112.556 168.963 111.897" stroke="#263238" stroke-linecap="round" stroke-linejoin="round"/>
<path d="M164.608 116.543C166.239 116.911 167.937 116.848 169.535 116.361C171.134 115.875 172.579 114.981 173.728 113.767C173.728 113.767 172.542 118.79 170.16 119.717C167.778 120.644 167.648 118.127 167.648 118.127L164.608 116.543Z" stroke="#263238" stroke-linecap="round" stroke-linejoin="round"/>
<path d="M169.362 106.475C170.458 105.444 171.791 104.699 173.244 104.307C174.697 103.915 176.224 103.888 177.69 104.228" stroke="#263238" stroke-width="2" stroke-linecap="round" stroke-linejoin="round"/>
<path d="M160.766 106.211C160.766 106.211 157.861 103.301 154.815 104.886" stroke="#263238" stroke-width="2" stroke-linecap="round" stroke-linejoin="round"/>
<path d="M153.894 104.228L155.344 105.683" stroke="#263238" stroke-linecap="round" stroke-linejoin="round"/>
<path d="M168.436 99.334C168.436 99.334 172.377 94.7923 178.073 99.0699" stroke="#263238" stroke-linecap="round" stroke-linejoin="round"/>
<path d="M160.501 99.1993C160.501 99.1993 156.933 96.4235 153.359 99.5981" stroke="#263238" stroke-linecap="round" stroke-linejoin="round"/>
<path d="M172.475 105.766C172.48 105.895 172.446 106.023 172.378 106.132C172.309 106.242 172.209 106.328 172.091 106.38C171.973 106.431 171.841 106.446 171.715 106.422C171.588 106.398 171.471 106.337 171.379 106.245C171.288 106.154 171.226 106.037 171.203 105.91C171.179 105.783 171.193 105.652 171.245 105.534C171.297 105.416 171.383 105.316 171.493 105.247C171.602 105.179 171.73 105.145 171.859 105.15C172.02 105.156 172.173 105.223 172.288 105.337C172.402 105.451 172.469 105.605 172.475 105.766Z" fill="#263238"/>
<path d="M157.358 105.212C157.359 105.339 157.322 105.464 157.252 105.57C157.182 105.676 157.082 105.759 156.965 105.809C156.847 105.858 156.718 105.872 156.593 105.847C156.468 105.823 156.353 105.762 156.263 105.673C156.173 105.583 156.111 105.469 156.086 105.344C156.061 105.219 156.073 105.09 156.122 104.972C156.17 104.855 156.252 104.754 156.358 104.683C156.464 104.613 156.588 104.575 156.715 104.575C156.885 104.575 157.047 104.642 157.168 104.761C157.288 104.88 157.356 105.042 157.358 105.212Z" fill="#263238"/>
<path d="M188.601 92.3168C188.601 92.3168 189.057 98.2671 187.959 102.752L189.699 103.301C189.699 103.301 191.071 96.4338 190.429 92.5912L188.601 92.3168Z" fill="#008CC7" stroke="#263238" stroke-linecap="round" stroke-linejoin="round"/>
<path d="M176.772 74.9113C178.687 75.8665 180.393 77.1918 181.792 78.8105C183.191 80.4291 184.256 82.3091 184.924 84.3417C187.026 91.1154 186.752 93.2231 188.031 93.9533C189.31 94.6835 191.786 95.1444 191.874 93.4976C191.962 91.8508 191.392 84.5022 187.731 79.9449C184.986 76.4752 179.061 75.0045 176.772 74.9113Z" fill="#008CC7" stroke="#263238" stroke-linecap="round" stroke-linejoin="round"/>
<path d="M189.326 101.442C186.69 100.634 183.795 102.477 182.852 105.538C181.982 108.371 183.091 111.26 185.338 112.327C183.688 116.52 181.234 120.35 178.114 123.601C177.506 123.526 176.893 123.682 176.395 124.036C175.452 124.673 175.038 125.714 175.478 126.367C175.918 127.019 177.031 127.03 177.979 126.398C178.927 125.766 179.263 124.844 178.963 124.212C182.153 120.883 184.656 116.956 186.327 112.659C188.844 113.177 191.506 111.374 192.391 108.459C193.334 105.393 191.962 102.249 189.326 101.442Z" fill="#008CC7" stroke="#263238" stroke-linecap="round" stroke-linejoin="round"/>
<path d="M191.563 107.428C191.118 109.386 189.352 110.66 187.617 110.266C185.882 109.873 184.836 107.962 185.281 106.004C185.727 104.047 187.493 102.773 189.227 103.161C190.962 103.549 192.008 105.466 191.563 107.428Z" fill="#008CC7" stroke="#263238" stroke-linecap="round" stroke-linejoin="round"/>
<path d="M191.055 139.728C191.055 139.728 188.492 133.322 187.948 132.131C187.404 130.94 191.884 123.891 192.609 122.882C193.334 121.872 194.711 119.774 194.711 119.313C194.711 118.852 189.497 113.726 188.393 112.902C187.29 112.079 185.467 113.938 185.467 113.938C185.467 113.938 180.708 120.256 180.708 120.986C180.708 121.716 182.992 124.005 182.992 124.005C182.992 124.005 179.424 129.132 179.885 131.147C180.346 133.161 182.174 134.901 182.174 134.901L184.737 144.787L191.055 139.728Z" fill="white" stroke="#263238" stroke-linecap="round" stroke-linejoin="round"/>
<path d="M182.998 123.979C182.998 123.979 186.105 121.509 185.836 120.779C185.729 120.562 185.558 120.384 185.345 120.269C185.133 120.154 184.89 120.108 184.65 120.137" stroke="#263238" stroke-linecap="round" stroke-linejoin="round"/>
<path d="M185.198 114.735C185.473 114.735 193.526 120.044 193.344 120.95C193.184 121.619 192.939 122.265 192.614 122.871" stroke="#263238" stroke-linecap="round" stroke-linejoin="round"/>
<path d="M186.115 113.912C186.115 113.912 193.712 118.671 193.883 119.495C193.917 119.765 193.885 120.04 193.79 120.295C193.694 120.55 193.538 120.779 193.334 120.96" stroke="#263238" stroke-linecap="round" stroke-linejoin="round"/>
<path d="M186.938 113.089C186.938 113.089 194.903 118.49 194.707 119.303C194.488 119.969 194.148 120.589 193.702 121.131" stroke="#263238" stroke-linecap="round" stroke-linejoin="round"/>
<path d="M192.154 138.998L179.886 146.061C179.886 146.061 195.815 183.959 198.747 189.086C201.678 194.213 209.549 195.404 213.672 194.032C217.794 192.659 219.803 184.42 218.431 180.94C217.058 177.46 207.167 162.25 202.413 154.648C197.659 147.045 192.154 138.998 192.154 138.998Z" fill="#263238" stroke="#263238" stroke-linecap="round" stroke-linejoin="round"/>
<path d="M185.67 159.008C185.67 159.008 199.135 184.902 202.584 190.08" stroke="#616161" stroke-linecap="round" stroke-linejoin="round"/>
<path d="M193.262 142.069L212.252 171.069" stroke="#616161" stroke-linecap="round" stroke-linejoin="round"/>
<path d="M139.414 104.56V87.8897C139.414 87.2469 139.159 86.6304 138.705 86.1759C138.25 85.7214 137.634 85.4661 136.991 85.4661H96.3328C95.69 85.4661 95.0736 85.7214 94.619 86.1759C94.1645 86.6304 93.9092 87.2469 93.9092 87.8897V104.56C93.9092 105.203 94.1645 105.819 94.619 106.274C95.0736 106.728 95.69 106.984 96.3328 106.984H131.248L139.197 114.632L137.607 106.896C138.124 106.76 138.581 106.457 138.908 106.035C139.234 105.612 139.413 105.094 139.414 104.56Z" fill="white" stroke="#263238" stroke-linecap="round" stroke-linejoin="round"/>
<path d="M108.632 97.7137C109.636 97.7137 110.45 96.8999 110.45 95.896C110.45 94.8921 109.636 94.0782 108.632 94.0782C107.628 94.0782 106.814 94.8921 106.814 95.896C106.814 96.8999 107.628 97.7137 108.632 97.7137Z" fill="#263238"/>
<path d="M116.66 97.7137C117.663 97.7137 118.477 96.8999 118.477 95.896C118.477 94.8921 117.663 94.0782 116.66 94.0782C115.656 94.0782 114.842 94.8921 114.842 95.896C114.842 96.8999 115.656 97.7137 116.66 97.7137Z" fill="#263238"/>
<path d="M124.692 97.7137C125.696 97.7137 126.509 96.8999 126.509 95.896C126.509 94.8921 125.696 94.0782 124.692 94.0782C123.688 94.0782 122.874 94.8921 122.874 95.896C122.874 96.8999 123.688 97.7137 124.692 97.7137Z" fill="#263238"/>
<path d="M100.512 104.177V100.448L96.592 99.578C96.3785 98.8208 96.0779 98.0909 95.6961 97.4029L97.8453 94.0161L95.2145 91.3801L91.8276 93.5345C91.1432 93.1493 90.4146 92.8485 89.6577 92.6385L88.7825 88.7183H85.0539L84.1839 92.6385C83.4251 92.8475 82.6946 93.1484 82.0088 93.5345L78.6427 91.3801L76.0067 94.0161L78.1248 97.3822C77.7387 98.068 77.4378 98.7985 77.2289 99.5573L73.3086 100.427V104.156L77.2289 105.031C77.4372 105.795 77.7381 106.531 78.1248 107.222L75.9704 110.609L78.6064 113.245L81.9933 111.09C82.68 111.476 83.4101 111.778 84.1683 111.991L85.0383 115.906H88.767L89.6422 111.991C90.3984 111.777 91.1268 111.475 91.8121 111.09L95.199 113.245L97.8349 110.609L95.6961 107.222C96.0769 106.535 96.3776 105.807 96.592 105.052L100.512 104.177ZM86.9286 107.129C85.976 107.129 85.0449 106.846 84.2528 106.317C83.4608 105.788 82.8435 105.035 82.479 104.155C82.1145 103.275 82.0191 102.307 82.2049 101.373C82.3908 100.438 82.8495 99.5803 83.523 98.9068C84.1966 98.2332 85.0547 97.7745 85.989 97.5887C86.9232 97.4029 87.8916 97.4982 88.7716 97.8628C89.6517 98.2273 90.4039 98.8446 90.9331 99.6366C91.4623 100.429 91.7448 101.36 91.7448 102.312C91.7448 102.945 91.6202 103.571 91.3782 104.155C91.1361 104.74 90.7814 105.271 90.3341 105.718C89.8869 106.165 89.356 106.52 88.7716 106.762C88.1873 107.004 87.561 107.129 86.9286 107.129Z" fill="#263238" stroke="#263238" stroke-linecap="round" stroke-linejoin="round"/>
<path d="M67.6471 202.115H153.303V198.66H67.6471V202.115Z" fill="white" stroke="#263238" stroke-linecap="round" stroke-linejoin="round"/>
<path d="M54.4943 202.115H129.15V198.66H54.4943V202.115Z" fill="white" stroke="#263238" stroke-linecap="round" stroke-linejoin="round"/>
<path d="M53.0503 192.514H124.475L116.774 137.987H45.3496L53.0503 192.514Z" fill="white" stroke="#263238" stroke-linecap="round" stroke-linejoin="round"/>
<path d="M50.0933 192.514H121.518L113.817 137.987H42.3926L50.0933 192.514Z" fill="#263238" stroke="#263238" stroke-linecap="round" stroke-linejoin="round"/>
<path d="M71.9779 167.169L64.8105 202.115H83.2415L90.4089 167.169H71.9779ZM84.4792 177.527C84.4493 177.673 84.3695 177.805 84.2533 177.899C84.1372 177.994 83.9919 178.045 83.8423 178.044L73.402 177.941C73.3043 177.94 73.208 177.916 73.1205 177.873C73.0329 177.83 72.9562 177.767 72.896 177.69C72.8359 177.613 72.7938 177.523 72.7729 177.428C72.752 177.332 72.7529 177.233 72.7754 177.138L73.7179 173.218C73.7478 173.071 73.8277 172.94 73.9438 172.845C74.0599 172.751 74.2052 172.699 74.3549 172.7L84.8003 172.798C84.8976 172.8 84.9933 172.824 85.0802 172.868C85.1671 172.912 85.2432 172.974 85.3028 173.051C85.3623 173.128 85.404 173.218 85.4245 173.313C85.4451 173.408 85.4442 173.506 85.4218 173.601L84.4792 177.527Z" fill="white" stroke="#263238" stroke-linecap="round" stroke-linejoin="round"/>
<path d="M0.574219 204.621L241.641 204.621V202.115L0.574219 202.115V204.621Z" fill="#263238" stroke="#263238" stroke-linecap="round" stroke-linejoin="round"/>
<path d="M173.34 36.5478L171.817 32.1304H156.524L157.907 58.0239H193.464V36.5478H173.34Z" stroke="#263238" stroke-linecap="round" stroke-linejoin="round"/>
<path d="M193.464 58.0238L196.499 34.3002H172.418" stroke="#263238" stroke-linecap="round" stroke-linejoin="round"/>
<path d="M90.596 49.3777C92.8525 39.7571 86.8827 30.1288 77.262 27.8723C67.6414 25.6158 58.0131 31.5856 55.7566 41.2062C53.5001 50.8268 59.4699 60.4551 69.0906 62.7116C78.7112 64.9681 88.3395 58.9983 90.596 49.3777Z" stroke="#263238" stroke-linecap="round" stroke-linejoin="round"/>
<path d="M87.2042 48.6551C89.0563 40.9109 84.2798 33.1316 76.5356 31.2795C68.7915 29.4275 61.0122 34.204 59.1601 41.9481C57.308 49.6923 62.0845 57.4716 69.8287 59.3237C77.5729 61.1757 85.3522 56.3992 87.2042 48.6551Z" stroke="#263238" stroke-linecap="round" stroke-linejoin="round"/>
<path d="M75.0904 45.295C75.0904 45.6729 74.9784 46.0424 74.7684 46.3566C74.5584 46.6709 74.26 46.9158 73.9108 47.0604C73.5616 47.2051 73.1774 47.2429 72.8067 47.1692C72.436 47.0955 72.0955 46.9135 71.8283 46.6462C71.561 46.379 71.379 46.0385 71.3053 45.6678C71.2315 45.2971 71.2694 44.9129 71.414 44.5637C71.5586 44.2145 71.8036 43.9161 72.1178 43.7061C72.4321 43.4961 72.8015 43.384 73.1795 43.384C73.6863 43.384 74.1724 43.5854 74.5307 43.9437C74.8891 44.3021 75.0904 44.7882 75.0904 45.295V45.295Z" stroke="#263238" stroke-linecap="round" stroke-linejoin="round"/>
<path d="M73.123 31.9598V35.528" stroke="#263238" stroke-linecap="round" stroke-linejoin="round"/>
<path d="M73.123 55.1345V58.6975" stroke="#263238" stroke-linecap="round" stroke-linejoin="round"/>
<path d="M63.6719 35.8749L66.1887 38.3969" stroke="#263238" stroke-linecap="round" stroke-linejoin="round"/>
<path d="M80.0566 52.2603L82.5735 54.7823" stroke="#263238" stroke-linecap="round" stroke-linejoin="round"/>
<path d="M59.7568 45.3312H63.3198" stroke="#263238" stroke-linecap="round" stroke-linejoin="round"/>
<path d="M82.9258 45.3312H86.4887" stroke="#263238" stroke-linecap="round" stroke-linejoin="round"/>
<path d="M63.6719 54.7823L66.1887 52.2603" stroke="#263238" stroke-linecap="round" stroke-linejoin="round"/>
<path d="M80.0566 38.3969L82.5735 35.8749" stroke="#263238" stroke-linecap="round" stroke-linejoin="round"/>
<path d="M71.2683 45.2949H65.9912" stroke="#263238" stroke-linecap="round" stroke-linejoin="round"/>
<path d="M73.1797 43.3841V36.4187" stroke="#263238" stroke-linecap="round" stroke-linejoin="round"/>
<path d="M143.419 32.1307H102.336V58.3712H143.419V32.1307Z" stroke="#263238" stroke-linecap="round" stroke-linejoin="round"/>
<path d="M102.336 32.1307L122.875 45.2484L143.419 32.1307" stroke="#263238" stroke-linecap="round" stroke-linejoin="round"/>
<path d="M102.336 58.3711L117.872 44.2125" stroke="#263238" stroke-linecap="round" stroke-linejoin="round"/>
<path d="M143.221 58.3707L127.685 44.2122" stroke="#263238" stroke-linecap="round" stroke-linejoin="round"/>
</svg>